<?xml version="1.0" encoding="UTF-8" standalone="no"?>
<svg id="svg2" xmlns:rdf="http://www.w3.org/1999/02/22-rdf-syntax-ns#" xmlns="http://www.w3.org/2000/svg" height="97.079mm" width="121.36mm" version="1.1" xmlns:cc="http://creativecommons.org/ns#" xmlns:dc="http://purl.org/dc/elements/1.1/" viewBox="0 0 429.99998 343.97906">
<g id="layer1" transform="translate(2119.8 420.74)">
<g id="g4142">
<path id="path2464" d="m-2098.3-420.74 193.39 0.0263 0.1613 128.9 107.47 0.0538h21.398l86.021 0.0537-0.054 128.92h-21.344l-0.215-21.263-21.156-0.37637-0.3764-21.237-85.645 0.0537-0.3763 21.183-21.183 0.37638-0.1613 21.263h-85.968l-0.1344-42.715-21.21-0.457-0.3764-21.102-21.129-0.37638-0.3764-21.236-85.645 0.0537-0.3763 21.183-21.129 0.37638-0.3764 21.129-21.21 0.37637-0.1344 42.796-21.425-0.0537 0.054-128.87 21.344-0.21512 0.1613-128.84m21.452 21.505v107.39l42.903 0.0263v-107.39l-42.903-0.0263m64.516 0v107.39l85.914 0.0263v-107.39z" fill="#008000"/>
<path id="path2470" d="m-2012.3-399.23 85.914 0.0263v107.39l-85.914-0.0262v-107.39zm-64.516 0 42.903 0.0263v107.39l-42.903-0.0262v-107.39z" fill="#0ff"/>
<path id="path2502" d="m-1797.3-162.67 42.93-0.0263 0.027 42.93-42.93 0.0263-0.027-42.93zm-236.51-21.505 42.876 0.0263-0.027 42.876-42.876-0.0275 0.027-42.876zm215.16-21.425 85.645-0.0538 0.3764 21.237 21.156 0.37638 0.215 21.263-0.1613 64.489-21.317 0.215-0.215 21.317-85.806-0.0275-0.2151-21.344-21.317-0.21512-0.081-64.435 0.1613-21.263 21.183-0.37637 0.3763-21.183m21.398 21.425-0.054 21.505h-21.452l-0.027 42.876 21.505 0.0537v21.452l42.876 0.02625 0.054-21.505h21.452l0.027-42.876-21.505-0.0538v-21.452l-42.876-0.0263zm-257.96-64.435 85.645-0.0538 0.3764 21.236 21.129 0.37638 0.3763 21.102 21.21 0.457 0.1344 42.715-0.081 42.957-21.371 0.24188-0.215 21.29-21.29 0.215-0.2151 21.317-85.806-0.0275-0.215-21.344-21.29-0.21512-0.215-21.29-21.317-0.215-0.081-42.903 0.1344-42.796 21.21-0.37638 0.3763-21.129 21.129-0.37637 0.3764-21.183m21.452 21.425-0.2151 21.317-21.29 0.215-0.2151 21.29-21.344 0.215-0.027 42.796 21.317 0.215 0.215 21.29 21.29 0.215 0.2151 21.344 42.796 0.02625 0.215-21.317 21.29-0.215 0.2151-21.29 21.344-0.215 0.027-42.796-21.317-0.215-0.215-21.29-21.29-0.21512-0.2151-21.344-42.796-0.0263z"/>
<path id="path2512" d="m-1797.2-119.74 42.93-0.0263-0.054 21.505-42.876-0.02625v-21.452zm42.903-42.957 21.505 0.0537-0.027 42.876h-21.452l-0.027-42.93zm-64.382 0.0269h21.452l0.027 42.93-21.505-0.0537 0.027-42.876zm21.505-21.505 42.876 0.0263v21.452l-42.93 0.0263 0.054-21.505zm-236.51-43.011 42.796 0.0263 0.215 21.344 21.29 0.21513 0.215 21.29 21.317 0.215-0.027 42.796-21.344 0.215-0.2151 21.29-21.29 0.215-0.2151 21.317-42.796-0.02625-0.2151-21.344-21.29-0.215-0.215-21.29-21.317-0.215 0.027-42.796 21.344-0.215 0.2151-21.29 21.29-0.215 0.215-21.317m-0.054 43.011-0.027 42.876 42.876 0.0275 0.027-42.876-42.876-0.0263zm236.53-193.58 21.398 0.0813v85.914h-21.398v-85.995z" fill="#c0c0c0"/>
</g>
</g>
</svg>
